<svg xmlns="http://www.w3.org/2000/svg" xmlns:xlink="http://www.w3.org/1999/xlink" xmlns:fi="http://pattern.flaticon.com/" x="0" y="0" width="1000" height="500" viewBox="0 0 1400 700"><rect x="0px" y="0px" width="100%" height="100%" opacity="1" fill="#ffffff"/><defs><path d="M311.175,115.775c-1.355-10.186-1.546-27.73,7.915-33.621c0.169-0.108,0.295-0.264,0.443-0.398    c7.735-2.474,13.088-5.946,8.886-10.618l-114.102-34.38L29.56,62.445c0,0-21.157,3.024-19.267,35.894    c1.026,17.89,6.637,26.676,11.544,31l-15.161,4.569c-4.208,4.672,1.144,8.145,8.88,10.615c0.147,0.138,0.271,0.293,0.443,0.401    c9.455,5.896,9.273,23.438,7.913,33.626c-33.967,9.645-21.774,12.788-21.774,12.788l7.451,1.803    c-5.241,4.736-10.446,13.717-9.471,30.75c1.891,32.864,19.269,35.132,19.269,35.132l120.904,39.298l182.49-44.202    c0,0,12.197-3.148-21.779-12.794c-1.366-10.172-1.556-27.712,7.921-33.623c0.174-0.105,0.301-0.264,0.442-0.396    c7.736-2.474,13.084-5.943,8.881-10.615l-7.932-2.395c5.29-3.19,13.236-11.527,14.481-33.183    c0.859-14.896-3.027-23.62-7.525-28.756l15.678-3.794C332.949,128.569,345.146,125.421,311.175,115.775z M158.533,115.354    l30.688-6.307l103.708-21.312l15.451-3.178c-4.937,9.036-4.73,21.402-3.913,29.35c0.179,1.798,0.385,3.44,0.585,4.688    L288.14,122.8l-130.897,32.563L158.533,115.354z M26.71,147.337l15.449,3.178l99.597,20.474l8.701,1.782l0,0l0,0l26.093,5.363    l1.287,40.01L43.303,184.673l-13.263-3.296c0.195-1.25,0.401-2.89,0.588-4.693C31.44,168.742,31.651,156.373,26.71,147.337z     M20.708,96.757c-0.187-8.743,1.371-15.066,4.52-18.28c2.004-2.052,4.369-2.479,5.991-2.479c0.857,0,1.474,0.119,1.516,0.119    l79.607,25.953l39.717,12.949l-1.303,40.289L39.334,124.07l-5.88-1.647c-0.216-0.061-0.509-0.103-0.735-0.113    C32.26,122.277,21.244,121.263,20.708,96.757z M140.579,280.866L23.28,247.98c-0.217-0.063-0.507-0.105-0.733-0.116    c-0.467-0.031-11.488-1.044-12.021-25.544c-0.19-8.754,1.376-15.071,4.519-18.288c2.009-2.052,4.375-2.479,5.994-2.479    c0.859,0,1.474,0.115,1.519,0.115c0,0,0.005,0,0,0l119.316,38.908L140.579,280.866z M294.284,239.459    c0.185,1.804,0.391,3.443,0.591,4.693l-147.812,36.771l1.292-40.01l31.601-6.497l4.667,1.129l17.492-5.685l80.631-16.569    l15.457-3.18C293.261,219.146,293.466,231.517,294.284,239.459z M302.426,185.084c-0.269,0.006-0.538,0.042-0.791,0.122    l-11.148,3.121l-106.148,29.764l-1.298-40.289l34.826-11.359l84.327-27.501c0.011-0.005,4.436-0.988,7.684,2.315    c3.144,3.214,4.704,9.537,4.52,18.28C313.848,184.035,302.827,185.053,302.426,185.084z" transform="matrix(0.17906171083450317 0 0 0.17906171083450317 289 145)" id="L1_16"/><g transform="matrix(1 0 0 1 109 249)" id="L1_26" fill="#000000"><path d="m55.143 30.953c-.180728-.9415823-1.0042302-1.6224504-1.963-1.623h-1.931l-.142-.851c-.141662-.8547477-.8150907-1.5225343-1.671-1.657-.19-.03-.382-.05-.571-.076.3274689-1.5288062.0554127-3.1249886-.76-4.459.4308169-1.1175257.3504088-2.3676964-.2200195-3.4208244s-1.5736058-1.8034792-2.7449805-2.0531756c-.7488911-4.0080145-4.2356951-6.9214442-8.313-6.946-.1 0-.189.013-.284.016-.6515045-1.02315288-1.7256011-1.70220088-2.929298-1.85191345-1.2036969-.14971258-2.4114108.24552995-3.293702 1.07791345-1.111462-.72248434-2.4083569-1.1076628-3.734-1.109-2.1359492.00874082-4.1489959 1.00014234-5.458 2.688-1.4534677-.4238352-3.0208066-.1635964-4.2593137.7072106-1.2385071.8708071-2.0137239 2.2576432-2.1066863 3.7687894-1.5266629.641743-2.5200364 2.1359406-2.521 3.792.003134.2870658.0366541.572993.1.853-1.3501124 2.0353266-1.7029006 4.5736359-.959 6.9-.268.037-.542.07-.8.108-.86035287.129809-1.53978521.7979443-1.684 1.656l-.142.854h-1.936c-.9571508.0006578-1.77966295.679377-1.962 1.619l-4.379 22.482c-.17101461.8804657.06089033 1.7912635.6321472 2.4827341.57125686.6914705 1.42193438 1.0910707 2.3188528 1.0892659h20.854c.828 1.366 3.344 2 5.716 2 2.347 0 4.839-.619 5.691-2h20.879c.8967062.0017463 1.7471793-.3977201 2.318396-1.0889483.5712166-.6912283.8032791-1.6017364.632604-2.4820517zm-39.878-10.187c-.811938-.4881877-1.1994384-1.4573229-.9479146-2.3707266.2515237-.9134037 1.08052-1.5475526 2.0279146-1.5512734.6630417-.0019666 1.2870585.313201 1.679.848.2129303.2868843.5627369.4383793.9176511.3974184.3549143-.0409609.6610161-.2681548.803-.596.141984-.3278452.0982792-.7065341-.1146511-.9934184-.6790297-.9075527-1.708075-1.4881143-2.836-1.6.2981423-1.4004791 1.5331428-2.403058 2.965-2.407.1220124.0061884.2435554.0195448.364.04-.0804495.2050145-.150538.413945-.21.626-.1244587.5293486.1968889 1.0611281.7233961 1.1971062.5265073.1359781 1.0651711-.173691 1.2126039-.6971062.1137118-.439513.288408-.8609381.519-1.252.8870486-1.4860588 2.4873452-2.3992674 4.218-2.407.9418914.00417 1.8622497.2821189 2.649.8-.1498789.4211076-.2292778.8640519-.235 1.311 0 .5522847.4477153 1 1 1s1-.4477153 1-1c0-1.161731.941769-2.1035 2.1035-2.1035s2.1035.941769 2.1035 2.1035c0 .5522847.4477153 1 1 1s1-.4477153 1-1c0-.077-.019-.15-.023-.227 2.8633441.1766672 5.2711283 2.2120213 5.922 5.006-.4664661.1358062-.9047548.3542731-1.294.645-.2858125.2143594-.4355547.5649147-.3928203.9196152.0427344.3547006.2714531.6596589.6.8.3285469.1403412.7070078.0947442.9928203-.1196152.7991086-.5916463 1.9029846-.5444616 2.6486913.113217.7457068.6576787.9304614 1.7470062.4433087 2.613783-.217683.382746-.548483.6887447-.947.876-.4179164.2023494-.6415685.6657486-.5399835 1.1188268.1015849.4530783.5016789.776627.9659835.7811732.1466355.0002227.2914783-.0322303.424-.095.2650236-.1284335.515464-.2850007.747-.467.5169232 1.4695642.1927165 3.1040105-.846 4.265l-.024.025c-1.3027747 1.4112776-3.3809864 1.7926906-5.1.936-.1683686-.0889266-.3301196-.1898539-.484-.302.7365719-1.032642.8383019-2.3890425.264-3.52-.1607695-.3192168-.4796268-.5284158-.8364614-.5487937-.3568347-.0203779-.6974349.1511611-.8935.45s-.2178081.6795769-.0570386.9987937c.3288222.6609419.1237272 1.4630251-.482 1.885-.3557078.2368235-.7951482.3117249-1.2092239.2061089s-.7639552-.3818448-.9627761-.7601089c-.1598763-.3195741-.4780989-.5295797-.8347964-.5509098-.3566974-.02133-.6976789.149256-.8945.4475001-.1968211.298244-.21958.6788356-.0597036.9984097.5864681 1.1838838 1.7948213 1.9315427 3.116 1.928.4301201-.0029151.8558543-.086705 1.255-.247.3571725.3127.7506661.5812964 1.172.8 1.4252119.7387529 3.0825117.8919607 4.619.427-.9882273 1.3493456-2.4672193 2.2562069-4.118 2.525-.5135633.083605-.8771992.5470675-.8362143 1.0657749.040985.5187073.4728938.919311.9932143.9212251.0532255-.0000175.1063747-.0040287.159-.012.6089289-.1054158 1.2040242-.279181 1.774-.518.3080574.5446553.5580939 1.1201415.746 1.717.0344142.1042128.0519685.2132519.052.323-.0002519.4322075-.2583895.8225619-.656.992-.4599764.1779113-.9822029.0375453-1.291-.347-.7744533-.9094404-1.7885601-1.5833173-2.927-1.945-2.161-.724-2.995-1.371-3.349-2.075.518862-.0647395 1.0315675-.1717622 1.533-.32.3415459-.1050361.6011113-.384306.6809203-.7326115.0798091-.3483054-.0322631-.7127306-.294-.956s-.6333744-.3284246-.9749203-.2233885c-.5611159.1721511-1.1403319.2785308-1.726.317-1.1283402.0881894-2.2619048-.0828373-3.314-.5-.3950277-.1540605-.8442701-.0422508-1.121.279-1.4559635 1.6724538-3.9478574 1.9567152-5.7430816.6551386-1.7952242-1.3015765-2.2998086-3.7583497-1.1629184-5.6621386.1841704-.307427.1903405-.6897551.0161861-1.0029649s-.5021752-.5097173-.8605-.5155-.6925157.1800378-.8766861.4874649c-.238586.406059-.4304726.8378039-.572 1.287-.7874809-.041431-1.4084206-.6855304-1.421-1.474v-.025c-.0005173-.2638693-.1064589-.5165907-.2942597-.7019501-.1878009-.1853594-.4418868-.2879853-.7057403-.2850499-.5546788.005491-1.0011256.4572951-1 1.012.0044528 1.7734668 1.3418538 3.2598987 3.105 3.451.0035845.3352284.0340151.6696311.091 1-2.2327928.4831347-4.5486183-.3194455-6.0036118-2.0806316-1.4549936-1.7611862-1.8061655-4.1868533-.9103882-6.2883684.2237217.2263432.4734607.425396.744.593.4723969.2767228 1.0794921.1221344 1.3620132-.3468178.2825212-.4689522.1354231-1.0779056-.3300132-1.3661822zm-4.4 8.033c.461-.068.937-.128 1.41-.19 1.8489234 2.9546304 5.3851304 4.389274 8.77 3.558.9094997 1.7261663 2.5714022 2.9299599 4.4950808 3.2559972 1.9236787.3260372 3.8894278-.262919 5.3169192-1.5929972.6795698.202697 1.3795072.3294705 2.087.378.483 1.832 1.879 2.942 4.812 3.925.7906821.2478808 1.4960375.7124592 2.036 1.341.6002998.7138339 1.4833272 1.1286667 2.416 1.135.4079034-.0001344.8115999-.0824381 1.187-.242 1.1335438-.4844411 1.8688883-1.5982775 1.869-2.831.0009195-.3214858-.0504164-.6409841-.152-.946-.2248837-.7065599-.5210757-1.3884046-.884-2.035 1.7004725-1.2224254 2.8850466-3.0340431 3.323-5.082.2129773-.253039.4055794-.5225483.576-.806.335.043.67.081 1.007.137l3.61 21.714c-7.0564939-2.3562987-14.6875061-2.3562987-21.744 0v-12.518c0-.5522847-.4477153-1-1-1s-1 .4477153-1 1v12.522c-7.0556977-2.358461-14.6865688-2.3612685-21.744-.008zm-8.214 25.833c-.18895586-.228251-.2659823-.5290209-.21-.82l4.379-22.482h1.6l-3.138 18.859c-.11037243.6864386.14237999 1.3811045.66806574 1.836115.52568576.4550104 1.24941507.6055441 1.91293426.397885 5.3310039-1.7271415 11.0104532-2.0875013 16.517-1.048l-.298 3.625h-20.652c-.30168092.0002141-.58756596-.1348382-.779-.368zm27.349 2.368c-2.409 0-3.791-.712-3.994-1.029l.344-4.15c1.0995773.2737803 2.1756369.6345846 3.218 1.079.1348035.0649541.2823664.0991122.432.1.1500306-.0002285.2980631-.0344161.433-.1 1.0417263-.447028 2.1174766-.8101815 3.217-1.086l.344 4.156c-.203.318-1.585 1.03-3.994 1.03zm27.349-2.368c-.191434.2331618-.4773191.3682141-.779.368h-20.649l-.3-3.632c5.5095832-1.037362 11.191496-.6739038 16.524 1.057.6633643.2049213 1.3855275.0522508 1.9091961-.4036178.5236686-.4558685.7743775-1.1501113.6628039-1.8353822l-3.135-18.855h1.6l4.38 22.48c.055473.2917534-.0226859.5930135-.213.821z" id="L1_17"/><path d="m26.686 22.685c-.4093551.3703847-.441136 1.0024199-.071 1.412.8483053.9366084 1.9694213 1.5830428 3.205 1.848-.5595777.7885583-1.4670723 1.2564735-2.434 1.255-.5522847 0-1 .4477153-1 1s.4477153 1 1 1c2.070157.0082594 3.9276303-1.2703233 4.659-3.207 2.4865405-.4120764 4.4551291-2.3260373 4.937-4.8.0744538-.3538613-.0479307-.7203513-.3200693-.9584726-.2721387-.2381213-.6516311-.3107736-.9924777-.1900059-.3408465.1207677-.5899418.4161394-.651453.7724785-.1960875 1.031393-.7911685 1.9437787-1.656 2.539-1.6637494 1.1205406-3.8950927.8662081-5.264-.6-.3703847-.4093551-1.0024199-.441136-1.412-.071z" id="L1_18"/><path d="m23.2 21.6c.5522847 0 1-.4477153 1-1 0-.6895629.2739278-1.350883.7615224-1.8384776s1.1489147-.7615224 1.8384776-.7615224c.5522847 0 1-.4477153 1-1s-.4477153-1-1-1c-2.5393675.0027557-4.5972443 2.0606325-4.6 4.6 0 .2652165.1053568.5195704.2928932.7071068s.4418903.2928932.7071068.2928932z" id="L1_19"/><path d="m31 2v-1c0-.55228475-.4477153-1-1-1s-1 .44771525-1 1v1c0 .55228475.4477153 1 1 1s1-.44771525 1-1z" id="L1_20"/><path d="m46.41 7.176-1 1c-.2599566.25107447-.3642126.62287789-.2726972.97250732.0915155.34962944.3645604.6226744.7141899.71418984.3496294.09151544.7214328-.01274058.9725073-.27269716l1-1c.2599566-.25107447.3642126-.62287789.2726972-.97250732-.0915155-.34962944-.3645604-.6226744-.7141899-.71418984-.3496294-.09151544-.7214328.01274058-.9725073.27269716z" id="L1_21"/><path d="m13.883 9.883c.4043959-.00008635.7689341-.2437275.923678-.61734544s.0692299-.80366031-.216678-1.08965456l-1-1c-.2510745-.25995658-.6228779-.3642126-.9725073-.27269716-.3496295.09151544-.6226744.3645604-.7141899.71418984-.0915154.34962943.0127406.72143285.2726972.97250732l1 1c.1874927.18754937.4418052.29294336.707.293z" id="L1_22"/><path d="m21.581 5.675c.1313847-.00028124.2614627-.02609305.383-.076.2451011-.10152817.4398132-.29629087.5412776-.54141839s.1013645-.52052773-.0002776-.76558161l-1.149-2.772c-.1316192-.33762411-.43559-.57762635-.7945371-.62733226-.358947-.04970591-.7166983.09866304-.9351117.38781568s-.2633091.67383911-.1173512 1.00551658l1.148 2.772c.1548963.37359074.5195709.61710177.924.617z" id="L1_23"/><path d="m39.95.979c-.5100349-.21099754-1.0945733.0311428-1.306.541l-1.149 2.772c-.1019555.24516905-.10222.52082095-.0007353.76618523.1014848.24536427.2963859.44029399.5417353.54181477.1215373.04990695.2516153.07571876.383.076.4044291.00010177.7691037-.24340926.924-.617l1.148-2.772c.1019555-.24516905.10222-.52082095.0007353-.76618523-.1014848-.24536427-.2963859-.44029399-.5417353-.54181477z" id="L1_24"/><path d="m50.325 17.582c.1314874-.0002372.2616372-.0264031.383-.077l2.771-1.148c.3301134-.1366541.5622467-.4390411.6089575-.7932547.0467108-.3542137-.0990974-.7064405-.3825-.924-.2834026-.2175596-.6613441-.2673994-.9914575-.1307453l-2.772 1.148c-.4423387.1816955-.6941348.6511321-.6008203 1.1201409.0933144.4690087.5056209.8063148.9838203.8048591z" id="L1_25"/><path d="m9.292 17.505c.51031111.2115251 1.0954749-.0306889 1.307-.541s-.0306889-1.0954749-.541-1.307l-2.772-1.148c-.51031111-.2112489-1.09525108.0311889-1.3065.5415s.03118889 1.0952511.5415 1.3065z" id="Shape"/></g><g transform="matrix(2.5 0 0 2.5 176 46)" id="L1_27"><path d="m11.894 24c-.131 0-.259-.052-.354-.146-.118-.118-.17-.288-.137-.451l.707-3.535c.02-.098.066-.187.137-.256l7.778-7.778c.584-.584 1.537-.584 2.121 0l1.414 1.414c.585.585.585 1.536 0 2.121l-7.778 7.778c-.069.07-.158.117-.256.137l-3.535.707c-.032.006-.065.009-.097.009zm1.168-3.789-.53 2.651 2.651-.53 7.671-7.671c.195-.195.195-.512 0-.707l-1.414-1.414c-.195-.195-.512-.195-.707 0zm2.367 2.582h.01z"/><path d="m9.5 21h-7c-1.379 0-2.5-1.121-2.5-2.5v-13c0-1.379 1.121-2.5 2.5-2.5h2c.276 0 .5.224.5.5s-.224.5-.5.5h-2c-.827 0-1.5.673-1.5 1.5v13c0 .827.673 1.5 1.5 1.5h7c.276 0 .5.224.5.5s-.224.5-.5.5z"/><path d="m16.5 12c-.276 0-.5-.224-.5-.5v-6c0-.827-.673-1.5-1.5-1.5h-2c-.276 0-.5-.224-.5-.5s.224-.5.5-.5h2c1.379 0 2.5 1.121 2.5 2.5v6c0 .276-.224.5-.5.5z"/><path d="m11.5 6h-6c-.827 0-1.5-.673-1.5-1.5v-2c0-.276.224-.5.5-.5h1.55c.232-1.14 1.243-2 2.45-2s2.218.86 2.45 2h1.55c.276 0 .5.224.5.5v2c0 .827-.673 1.5-1.5 1.5zm-6.5-3v1.5c0 .275.225.5.5.5h6c.275 0 .5-.225.5-.5v-1.5h-1.5c-.276 0-.5-.224-.5-.5 0-.827-.673-1.5-1.5-1.5s-1.5.673-1.5 1.5c0 .276-.224.5-.5.5z"/><path d="m13.5 9h-10c-.276 0-.5-.224-.5-.5s.224-.5.5-.5h10c.276 0 .5.224.5.5s-.224.5-.5.5z"/><path d="m13.5 12h-10c-.276 0-.5-.224-.5-.5s.224-.5.5-.5h10c.276 0 .5.224.5.5s-.224.5-.5.5z"/><path d="m13.5 15h-10c-.276 0-.5-.224-.5-.5s.224-.5.5-.5h10c.276 0 .5.224.5.5s-.224.5-.5.5z"/></g><g transform="matrix(0.23577359776433995 0.021433963487105075 -0.021433963487105075 0.23577359776433995 133.19240749260558 113.80783128735641)" id="L1_28"><path d="M45.432,35.049c-0.008,0-0.017,0-0.025,0c-2.809,0-5.451,1.095-7.446,3.085c-2.017,2.012-3.128,4.691-3.128,7.543     v159.365c0,5.844,4.773,10.61,10.641,10.625c24.738,0.059,66.184,5.215,94.776,35.136V84.023c0-1.981-0.506-3.842-1.461-5.382     C115.322,40.849,70.226,35.107,45.432,35.049z" fill="#ffbf00"/><path d="M262.167,205.042V45.676c0-2.852-1.111-5.531-3.128-7.543c-1.995-1.99-4.639-3.085-7.445-3.085c-0.009,0-0.018,0-0.026,0     c-24.793,0.059-69.889,5.801-93.357,43.593c-0.955,1.54-1.46,3.401-1.46,5.382v166.779     c28.592-29.921,70.038-35.077,94.776-35.136C257.394,215.651,262.167,210.885,262.167,205.042z" fill="#ffbf00"/><path d="M286.373,71.801h-7.706v133.241c0,14.921-12.157,27.088-27.101,27.125c-20.983,0.05-55.581,4.153-80.084,27.344     c42.378-10.376,87.052-3.631,112.512,2.171c3.179,0.724,6.464-0.024,9.011-2.054c2.538-2.025,3.994-5.052,3.994-8.301V82.427     C297,76.568,292.232,71.801,286.373,71.801z" fill="#ffbf00"/><path d="M18.332,205.042V71.801h-7.706C4.768,71.801,0,76.568,0,82.427v168.897c0,3.25,1.456,6.276,3.994,8.301     c2.545,2.029,5.827,2.78,9.011,2.054c25.46-5.803,70.135-12.547,112.511-2.171c-24.502-23.19-59.1-27.292-80.083-27.342     C30.49,232.13,18.332,219.963,18.332,205.042z" fill="#ffbf00"/></g><g transform="matrix(0.1171875 0 0 0.1171875 48 45.99999966005271)" id="L1_29"><path d="m477.58 11a305.394 305.394 0 0 1 -7.91 69.22l-.34-.08a130.141 130.141 0 0 1 -61.07-60.8l-.15-.31a303.245 303.245 0 0 1 69.47-8.03z" fill="#ed6337"/><path d="m208.03 261.78-25.13-25.13q2.22-8.235 4.91-16.29a304.131 304.131 0 0 1 46.93-88.67h.01a306.813 306.813 0 0 1 173.36-112.66l.15.31a130.141 130.141 0 0 0 61.07 60.8l.34.08a303.176 303.176 0 0 1 -56.36 117.82 305.378 305.378 0 0 1 -56.52 55.69 303.2 303.2 0 0 1 -87.88 46.2q-8.64 2.865-17.52 5.21l-23.08-23.08z" fill="#e5f5fd"/><path d="m430.52 348.45a39.189 39.189 0 0 0 15.41 9.55 39.464 39.464 0 0 0 -24.93 25 39.464 39.464 0 0 0 -24.93-25 39.464 39.464 0 0 0 24.93-25 39.5 39.5 0 0 0 9.52 15.45z" fill="#3090fc"/><path d="m361.52 298.56a35.767 35.767 0 0 1 0 50.59l-58.56 59.42-33.96-34.38a52.907 52.907 0 0 1 -.09-74.26 303.2 303.2 0 0 0 87.88-46.2l.03.04a35.78 35.78 0 0 0 4.7 44.79z" fill="#475673"/><path d="m228.31 282.06-12.77 51.65-60.66-60.67 53.15-11.26z" fill="#ed6337"/><path d="m189.96 127a35.751 35.751 0 0 0 44.78 4.69 304.131 304.131 0 0 0 -46.93 88.67 52.9 52.9 0 0 1 -73.48-.84l-34.39-33.96 59.43-58.56a35.767 35.767 0 0 1 50.59 0z" fill="#475673"/><path d="m183.74 327.11a21.793 21.793 0 0 1 -19.15 21.66l-27.79 3.45 3.44-27.8a21.833 21.833 0 0 1 43.5 2.69z" fill="#fadf4a"/><path d="m58.52 107.45a39.189 39.189 0 0 0 15.41 9.55 39.464 39.464 0 0 0 -24.93 25 39.464 39.464 0 0 0 -24.93-25 39.189 39.189 0 0 0 15.41-9.55 39.5 39.5 0 0 0 9.52-15.45 39.5 39.5 0 0 0 9.52 15.45z" fill="#3090fc"/><circle cx="336" cy="151" r="37" fill="#50a6ea"/><path d="m408.26 19.34-.15-.31a306.813 306.813 0 0 0 -173.36 112.66h-.01a304.131 304.131 0 0 0 -46.93 88.67q-2.685 8.055-4.91 16.29l20 20q2.22-8.235 4.91-16.29a304.131 304.131 0 0 1 46.93-88.67h.01a306.985 306.985 0 0 1 166.55-110.974 130.115 130.115 0 0 1 -13.04-21.376z" fill="#a6b7d0"/><g fill="#284268"><path d="m361.377 257.848a310.625 310.625 0 0 0 122.205-246.848 6 6 0 0 0 -6-6 309.721 309.721 0 0 0 -190.6 65.542 314.15 314.15 0 0 0 -56.1 56.478 29.879 29.879 0 0 1 -36.679-4.266 41.771 41.771 0 0 0 -59.042-.03l-59.429 58.559a6 6 0 0 0 0 8.542l34.384 33.96a59.1 59.1 0 0 0 67.062 11.081c-.02.074-.042.146-.062.219a6 6 0 0 0 1.55 5.807l17.305 17.308-42.338 8.973a6 6 0 0 0 -3 10.112l21.3 21.3a53.242 53.242 0 0 0 -15.5-6.221c-1.738-.393-3.48-.7-5.163-.91a53.414 53.414 0 0 0 -6.349-.425 52.678 52.678 0 0 0 -37.821 15.55 53.923 53.923 0 0 0 -16.112 38.515 6 6 0 0 0 5.848 6l4.525.115a57.377 57.377 0 0 0 -10.251 41.979 5.984 5.984 0 0 0 5.89 4.812h16.392a6 6 0 0 0 0-12h-10.93c-.17-8 1.586-23.158 16.115-35.979a5.991 5.991 0 0 0 -3.817-10.483l-11.36-.286a42.066 42.066 0 0 1 12.157-24.152 40.9 40.9 0 0 1 28.964-12.071h.313c.955.006 1.913.057 2.87.13a27.672 27.672 0 0 0 -13.422 20.526l-3.441 27.8a6 6 0 0 0 5.954 6.737 6.1 6.1 0 0 0 .737-.045l27.8-3.442a27.771 27.771 0 0 0 20.532-13.466c.086 1.081.145 2.171.147 3.269a41.251 41.251 0 0 1 -12.157 29.351 6 6 0 1 0 8.484 8.485 53.447 53.447 0 0 0 15.254-44.474c-.2-1.673-.492-3.374-.866-5.058a53.284 53.284 0 0 0 -6.273-15.739l20.847 20.845a6 6 0 0 0 10.066-2.8l10.222-41.331 15.562 15.563a6.006 6.006 0 0 0 5.778 1.558c.359-.1.714-.2 1.073-.3a59.088 59.088 0 0 0 10.735 67.766l33.957 34.596a6.222 6.222 0 0 0 4.269 2 6.217 6.217 0 0 0 4.27-2l58.53-59.5a41.884 41.884 0 0 0 0-59.126 29.953 29.953 0 0 1 -4.385-36.526zm110.144-240.787a298.168 298.168 0 0 1 -6.094 54.3 124.694 124.694 0 0 1 -48.365-48.161 297.374 297.374 0 0 1 54.459-6.139zm-352.976 198.186-30.058-29.686 55.123-54.321a29.771 29.771 0 0 1 42.1 0 41.911 41.911 0 0 0 33.476 12.006 311.053 311.053 0 0 0 -36.56 73.713 47.03 47.03 0 0 1 -64.081-1.712zm58.6 116.177a15.809 15.809 0 0 1 -13.292 11.4l-20.158 2.5 2.5-20.153a15.951 15.951 0 0 1 11.78-13.4 15.85 15.85 0 0 1 19.175 19.659zm35.123-9.477-45.329-45.328 39.153-8.3 15.584 15.581zm40.909-23.511-63.557-63.557q1.6-5.66 3.433-11.248c.036-.036.073-.068.109-.1l-.057-.057a301.408 301.408 0 0 1 186.058-189.759q12.725-4.463 25.755-7.728a136.694 136.694 0 0 0 57.732 57.506c-25.666 102.418-104.582 185.892-209.473 214.943zm104.071 46.5-54.291 55.094-29.686-30.057a47.024 47.024 0 0 1 -1.032-64.83 308.378 308.378 0 0 0 73.032-35.806 41.922 41.922 0 0 0 12.007 33.469 29.813 29.813 0 0 1 -.03 42.132z"/><path d="m154.21 384.878a41.7 41.7 0 0 1 -9.71 1.122h-9.452a6 6 0 0 0 0 12h9.452a53.678 53.678 0 0 0 12.5-1.452 6 6 0 0 0 -2.795-11.67z"/><path d="m395.659 260.914a5.974 5.974 0 0 0 3.824-1.379c4.276-3.54 8.516-7.248 12.6-11.02a6 6 0 1 0 -8.137-8.819c-3.931 3.627-8.01 7.192-12.121 10.6a6 6 0 0 0 3.83 10.621z"/><path d="m494.754 102.88a6 6 0 0 0 -7.48 4.007 297.025 297.025 0 0 1 -19.462 48.466c-2.876 5.663-5.979 11.313-9.221 16.792-3.985 6.731-8.29 13.392-12.8 19.8a300.531 300.531 0 0 1 -23.286 29.055 6 6 0 0 0 8.881 8.071 312.778 312.778 0 0 0 24.214-30.222c4.69-6.662 9.169-13.59 13.314-20.593 3.373-5.7 6.6-11.577 9.594-17.469a309.129 309.129 0 0 0 20.249-50.428 6 6 0 0 0 -4.003-7.479z"/><path d="m20.991 250.51a5.982 5.982 0 0 0 4.242-1.757l4.595-4.595a6 6 0 0 0 -8.484-8.485l-4.6 4.595a6 6 0 0 0 4.242 10.242z"/><path d="m42.862 231.124 20.531-20.53a6 6 0 1 0 -8.485-8.486l-20.53 20.53a6 6 0 1 0 8.484 8.486z"/><path d="m25.787 271.18a6 6 0 0 0 8.485 0l24.133-24.134a6 6 0 0 0 -8.486-8.485l-24.133 24.133a6 6 0 0 0 .001 8.486z"/><path d="m65.961 237a5.982 5.982 0 0 0 4.242-1.757l8.922-8.921a6 6 0 1 0 -8.484-8.486l-8.922 8.922a6 6 0 0 0 4.242 10.242z"/><path d="m41.4 278.547-26.66 26.658a6 6 0 0 0 8.485 8.485l26.658-26.658a6 6 0 1 0 -8.485-8.485z"/><path d="m94.856 233.573a6 6 0 0 0 -8.484 0l-31.231 31.227a6 6 0 1 0 8.484 8.486l31.231-31.232a6 6 0 0 0 0-8.481z"/><path d="m212.9 427.226-4.6 4.594a6 6 0 0 0 8.486 8.485l4.594-4.6a6 6 0 0 0 -8.486-8.484z"/><path d="m246.461 393.661-20.53 20.53a6 6 0 1 0 8.484 8.485l20.53-20.53a6 6 0 0 0 -8.484-8.485z"/><path d="m217.338 462.732a6 6 0 0 0 8.485 0l24.134-24.132a6 6 0 1 0 -8.484-8.485l-24.134 24.133a6 6 0 0 0 -.001 8.484z"/><path d="m253.271 426.8a6 6 0 0 0 8.486 0l8.921-8.922a6 6 0 0 0 -8.487-8.485l-8.92 8.921a6 6 0 0 0 0 8.486z"/><path d="m232.951 470.1-26.658 26.657a6 6 0 1 0 8.484 8.486l26.659-26.658a6 6 0 1 0 -8.485-8.485z"/><path d="m277.925 425.125-31.232 31.232a6 6 0 1 0 8.485 8.485l31.231-31.231a6 6 0 1 0 -8.484-8.486z"/><path d="m447.828 352.31a33.632 33.632 0 0 1 -21.135-21.2 6 6 0 0 0 -11.386 0 33.632 33.632 0 0 1 -21.135 21.2 6 6 0 0 0 0 11.38 33.632 33.632 0 0 1 21.135 21.2 6 6 0 0 0 11.386 0 33.632 33.632 0 0 1 21.135-21.2 6 6 0 0 0 0-11.38zm-26.828 17.381a45.932 45.932 0 0 0 -11.668-11.691 45.932 45.932 0 0 0 11.668-11.691 45.932 45.932 0 0 0 11.668 11.691 45.932 45.932 0 0 0 -11.668 11.691z"/><path d="m22.172 122.69a33.632 33.632 0 0 1 21.135 21.2 6 6 0 0 0 11.386 0 33.632 33.632 0 0 1 21.135-21.2 6 6 0 0 0 0-11.38 33.632 33.632 0 0 1 -21.135-21.2 6 6 0 0 0 -11.386 0 33.632 33.632 0 0 1 -21.135 21.2 6 6 0 0 0 0 11.38zm26.828-17.381a45.932 45.932 0 0 0 11.668 11.691 45.932 45.932 0 0 0 -11.668 11.691 45.932 45.932 0 0 0 -11.668-11.691 45.932 45.932 0 0 0 11.668-11.691z"/><ellipse cx="127px" cy="54px" rx="10px" ry="11px"/><ellipse cx="402px" cy="445px" rx="10px" ry="11px"/><path d="m336.744 107.968a43.86 43.86 0 1 0 31.021 74.891 43.87 43.87 0 0 0 -31.022-74.891zm22.536 66.406a31.871 31.871 0 1 1 0-45.071 31.906 31.906 0 0 1 0 45.071z"/></g></g><g transform="matrix(0.1171875 0 0 0.1171875 260 265)" id="L1_30"><circle cx="256" cy="267" r="245" fill="#1a2b63"/><path d="M216.796,378.925c12.65,0,24.304,6.362,31.175,17.02c0.169,0.263,0.453,0.432,0.765,0.455  c0.025,0.002,0.051,0.003,0.076,0.003c0.286,0,0.559-0.122,0.749-0.338c10.3-11.651,25.108-18.333,40.627-18.333  c5.288,0,10.396,0.774,15.231,2.193l-17.846-45.745h-63.146l-18.041,46.244C209.691,379.454,213.182,378.925,216.796,378.925z" fill="#d9eafc"/><g><path d="M232.659,334.179h-8.232l-18.041,46.244c2.808-0.823,5.756-1.306,8.794-1.44L232.659,334.179z" fill="#aec1ed"/><path d="M197.586,426.192c0.04,0.264,0.183,0.501,0.398,0.659c0.172,0.127,0.38,0.194,0.591,0.194   c0.052,0,0.105-0.004,0.157-0.012c3.57-0.568,7.155-0.856,10.655-0.856c17.099,0,33.41,6.425,45.931,18.091   c0.192,0.179,0.437,0.268,0.682,0.268c0.245,0,0.49-0.089,0.682-0.268c12.52-11.666,28.832-18.091,45.931-18.091   c3.499,0,7.085,0.288,10.655,0.856c0.053,0.008,0.105,0.012,0.157,0.012c0.211,0,0.419-0.067,0.591-0.194   c0.215-0.158,0.358-0.395,0.398-0.659c1.848-12.438,6.529-24.218,13.552-34.499c-9.878-9.272-23.159-14.962-37.778-14.962   c-16.477,0-31.259,7.226-41.376,18.671c-6.776-10.511-18.578-17.478-32.015-17.478c-12.889,0-24.273,6.411-31.162,16.212   C191.765,403.825,195.883,414.727,197.586,426.192z" fill="#aec1ed"/></g><path d="M198.576,426.045c-6.018-40.51-40.935-71.591-83.119-71.591c-29.285,0-55.061,14.984-70.105,37.697  c23.034,38.687,56.425,70.475,96.344,91.571C145.965,454.156,169.144,430.721,198.576,426.045z" fill="#445ea0"/><path d="M123.849,364.787c21.432,0,41.078,7.602,56.425,20.237c-15.413-18.665-38.719-30.57-64.817-30.57  c-29.285,0-55.061,14.984-70.105,37.697c1.987,3.337,4.057,6.62,6.196,9.852C67.667,379.477,94.036,364.787,123.849,364.787z" fill="#293d7c"/><path d="M396.543,354.454c-42.184,0-77.101,31.082-83.119,71.591c29.432,4.676,52.611,28.111,56.88,57.677  c39.918-21.096,73.31-52.885,96.344-91.571C451.604,369.438,425.828,354.454,396.543,354.454z" fill="#445ea0"/><g><path d="M401.627,354.61c-1.682-0.1-3.376-0.156-5.084-0.156c-42.184,0-77.101,31.082-83.119,71.591   c3.136,0.498,6.196,1.222,9.174,2.131C330.96,389.897,362.404,360.256,401.627,354.61z" fill="#293d7c"/><path d="M302.612,425.177c-18.016,0-34.395,6.976-46.612,18.359c-12.217-11.384-28.596-18.359-46.612-18.359   c-34.435,0-62.92,25.446-67.695,58.558C175.821,501.772,214.713,512,256,512s80.179-10.228,114.307-28.265   C365.532,450.623,337.047,425.177,302.612,425.177z" fill="#293d7c"/></g><path d="M223.686,433.681c9.435,0,18.439,1.835,26.68,5.162c-11.423-8.569-25.6-13.666-40.979-13.666  c-34.435,0-62.92,25.446-67.695,58.558c4.023,2.126,8.114,4.14,12.265,6.044C160.964,457.704,189.508,433.681,223.686,433.681z" fill="#1a2b63"/><g><path d="M278.528,334.179h-15.119l1.929,15.261c0.519,4.11,4.277,7.017,8.381,6.5   c4.109-0.52,7.02-4.272,6.5-8.381L278.528,334.179z" fill="#aec1ed"/><path d="M233.472,334.179l-3.966,31.38c-0.519,4.109,2.391,7.862,6.501,8.381   c0.319,0.04,0.636,0.06,0.95,0.06c3.723-0.001,6.953-2.771,7.432-6.561l4.204-33.261h-15.121V334.179z" fill="#aec1ed"/></g><path d="M179.108,195.717c0-8.155,0.306-16.288,0.878-24.362c-24.06,13.549-40.636,43.733-40.636,78.678  c0,18.456,4.589,36.057,13.27,50.9c0.815,1.394,2.29,2.191,3.822,2.191c0.56,0,1.127-0.106,1.672-0.329  c11.409-4.664,23.601-7.06,36.244-7.16C184.375,264.907,179.108,230.591,179.108,195.717z" fill="#fe3745"/><path d="M150.689,250.033c0-28.863,11.315-54.467,28.808-70.143c0.134-2.851,0.289-5.697,0.49-8.535  c-24.06,13.549-40.636,43.733-40.636,78.678c0,18.456,4.589,36.057,13.27,50.9c0.815,1.394,2.29,2.191,3.822,2.191  c0.56,0,1.127-0.106,1.672-0.329c1.88-0.769,3.79-1.453,5.711-2.098C155.233,285.903,150.689,268.392,150.689,250.033z" fill="#b7092b"/><g><path d="M332.013,171.355c0.572,8.075,0.878,16.208,0.878,24.362c0,34.873-5.267,69.189-15.251,99.918   c12.644,0.1,24.835,2.496,36.244,7.16c0.545,0.223,1.113,0.329,1.672,0.329c1.533,0,3.007-0.798,3.822-2.191   c8.682-14.843,13.27-32.444,13.27-50.9C372.649,215.088,356.073,184.904,332.013,171.355z" fill="#fe3745"/><path d="M217.708,307.125v23.054c0,2.75,2.25,5,5,5h66.583c2.75,0,5-2.25,5-5v-23.054H217.708z" fill="#fe3745"/></g><path d="M234.715,330.179v-23.054h-17.007v23.054c0,2.75,2.25,5,5,5h17.007  C236.965,335.179,234.715,332.929,234.715,330.179z" fill="#b7092b"/><path d="M316.854,90.318H195.145c-11.154,32.153-17.037,68.343-17.037,105.399  c0,38.522,6.389,76.387,18.475,109.5c0.638,1.746,2.298,2.908,4.157,2.908h110.519c1.859,0,3.52-1.162,4.157-2.908  c12.086-33.113,18.475-70.978,18.475-109.5C333.892,158.661,328.009,122.472,316.854,90.318z" fill="#eef6ff"/><path d="M210.756,305.217c-12.087-33.113-18.475-70.978-18.475-109.5c0-37.056,5.883-73.246,17.037-105.399  h-14.172c-11.154,32.153-17.037,68.343-17.037,105.399c0,38.522,6.389,76.387,18.475,109.5c0.638,1.746,2.298,2.908,4.157,2.908  h14.172C213.054,308.125,211.394,306.963,210.756,305.217z" fill="#d9eafc"/><path d="M227.179,90.318v16.594c0,2.75,2.25,5,5,5h47.642c2.75,0,5-2.25,5-5V90.318H227.179z" fill="#ea2a3d"/><path d="M238.517,106.912V90.318h-11.338v16.594c0,2.75,2.25,5,5,5h11.338  C240.767,111.912,238.517,109.662,238.517,106.912z" fill="#b7092b"/><path d="M256,0c-0.987,0-1.973,0.329-2.785,0.986c-22.338,18.089-41.154,45.529-54.411,79.354  c-1.41,3.599-2.735,7.269-4.006,10.978h122.403c-1.271-3.709-2.596-7.379-4.006-10.978c-13.257-33.825-32.072-61.265-54.411-79.354  C257.973,0.329,256.987,0,256,0z" fill="#fe3745"/><path d="M263.086,4.628c-1.419-1.251-2.852-2.468-4.301-3.642C257.973,0.329,256.987,0,256,0  s-1.973,0.329-2.785,0.986c-22.338,18.089-41.154,45.529-54.411,79.354c-1.41,3.599-2.735,7.269-4.006,10.978h14.172  c1.271-3.709,2.596-7.379,4.006-10.978C225.374,48.709,242.632,22.667,263.086,4.628z" fill="#b7092b"/><circle cx="256" cy="180" r="51" fill="#445ea0"/><circle cx="256" cy="180" r="32" fill="#69cdff"/><path d="M235.268,180.932c0,16.027,11.521,29.355,26.732,32.174c-1.946,0.36-3.949,0.558-6,0.558  c-18.078,0-32.731-14.655-32.731-32.732s14.654-32.731,32.731-32.731c2.05,0,4.054,0.198,6,0.558  C246.789,151.578,235.268,164.905,235.268,180.932z" fill="#52bbef"/><path d="M110.136,178.737c-1.147,0-2.181-0.691-2.62-1.751c-5.583-13.479-9.699-17.594-23.178-23.177  c-1.06-0.439-1.75-1.473-1.75-2.62c0-1.147,0.691-2.181,1.75-2.62c13.48-5.585,17.595-9.701,23.178-23.179  c0.439-1.06,1.473-1.751,2.62-1.751s2.181,0.691,2.62,1.751c5.584,13.478,9.7,17.594,23.179,23.179  c1.06,0.439,1.751,1.473,1.751,2.62c0,1.147-0.691,2.182-1.751,2.62c-13.479,5.582-17.595,9.698-23.179,23.177  C112.317,178.046,111.283,178.737,110.136,178.737L110.136,178.737z" fill="#ffd00d"/><path d="M113.185,171.317c-5.583-13.479-9.699-17.594-23.178-23.177c-0.666-0.275-1.185-0.787-1.48-1.413  c-1.294,0.606-2.674,1.214-4.189,1.842c-1.06,0.439-1.75,1.473-1.75,2.62c0,1.147,0.691,2.182,1.75,2.62  c13.479,5.583,17.595,9.698,23.178,23.177c0.439,1.06,1.473,1.751,2.62,1.751s2.181-0.691,2.62-1.751  c0.627-1.515,1.236-2.895,1.841-4.188C113.972,172.503,113.461,171.983,113.185,171.317z" fill="#ffaf10"/><path d="M411.469,201.404c-1.008,0-1.917-0.607-2.303-1.539c-4.907-11.848-8.525-15.465-20.373-20.372  c-0.931-0.385-1.539-1.295-1.539-2.303c0-1.009,0.607-1.917,1.539-2.303c11.849-4.909,15.466-8.527,20.373-20.374  c0.386-0.932,1.295-1.539,2.303-1.539s1.917,0.607,2.303,1.539c4.908,11.848,8.526,15.465,20.375,20.374  c0.931,0.386,1.538,1.294,1.538,2.303c0,1.008-0.607,1.917-1.539,2.303c-11.848,4.907-15.466,8.524-20.374,20.372  C413.387,200.796,412.478,201.404,411.469,201.404L411.469,201.404z" fill="#ffffff"/><path d="M414.149,194.882c-4.908-11.848-8.525-15.465-20.374-20.373c-0.585-0.242-1.042-0.691-1.301-1.242  c-1.137,0.532-2.351,1.067-3.682,1.619c-0.931,0.386-1.539,1.294-1.539,2.303c0,1.008,0.607,1.917,1.539,2.303  c11.849,4.907,15.466,8.524,20.373,20.372c0.386,0.932,1.295,1.539,2.303,1.539s1.917-0.607,2.303-1.539  c0.551-1.331,1.086-2.545,1.619-3.682C414.841,195.924,414.392,195.467,414.149,194.882z" fill="#d9eafc"/><path d="M385.469,96.071c-1.175,0-2.234-0.708-2.684-1.793c-5.718-13.806-9.933-18.021-23.739-23.738  c-1.085-0.449-1.792-1.509-1.792-2.683c0-1.176,0.708-2.234,1.792-2.684c13.807-5.72,18.022-9.935,23.739-23.739  c0.45-1.086,1.509-1.794,2.684-1.794s2.234,0.708,2.684,1.794c5.719,13.805,9.934,18.02,23.74,23.739  c1.085,0.45,1.792,1.508,1.792,2.684c0,1.174-0.708,2.234-1.793,2.683c-13.806,5.717-18.02,9.933-23.74,23.738  C387.703,95.363,386.644,96.071,385.469,96.071L385.469,96.071z" fill="#ff9518"/><path d="M388.592,88.472c-5.719-13.805-9.934-18.02-23.74-23.738c-0.682-0.282-1.213-0.806-1.516-1.447  c-1.324,0.621-2.739,1.244-4.291,1.886c-1.085,0.45-1.792,1.508-1.792,2.684c0,1.174,0.708,2.234,1.792,2.683  c13.806,5.718,18.022,9.933,23.739,23.738c0.45,1.085,1.509,1.793,2.684,1.793s2.234-0.708,2.684-1.793  c0.643-1.552,1.266-2.966,1.886-4.29C389.397,89.686,388.874,89.154,388.592,88.472z" fill="#ef8318"/></g></defs><g fi:class="KUsePattern"><pattern id="pattern_L1_16" width="350" height="350" patternUnits="userSpaceOnUse"><use xlink:href="#L1_16" x="-350" y="-350"/><use xlink:href="#L1_16" x="0" y="-350"/><use xlink:href="#L1_16" x="350" y="-350"/><use xlink:href="#L1_16" x="-350" y="0"/><use xlink:href="#L1_16" x="0" y="0"/><use xlink:href="#L1_16" x="350" y="0"/><use xlink:href="#L1_16" x="-350" y="350"/><use xlink:href="#L1_16" x="0" y="350"/><use xlink:href="#L1_16" x="350" y="350"/></pattern><rect x="0" y="0" width="100%" height="100%" fill="url(#pattern_L1_16)"/></g><g fi:class="KUsePattern"><pattern id="pattern_L1_26" width="350" height="350" patternUnits="userSpaceOnUse"><use xlink:href="#L1_26" x="-350" y="-350"/><use xlink:href="#L1_26" x="0" y="-350"/><use xlink:href="#L1_26" x="350" y="-350"/><use xlink:href="#L1_26" x="-350" y="0"/><use xlink:href="#L1_26" x="0" y="0"/><use xlink:href="#L1_26" x="350" y="0"/><use xlink:href="#L1_26" x="-350" y="350"/><use xlink:href="#L1_26" x="0" y="350"/><use xlink:href="#L1_26" x="350" y="350"/></pattern><rect x="0" y="0" width="100%" height="100%" fill="url(#pattern_L1_26)"/></g><g fi:class="KUsePattern"><pattern id="pattern_L1_27" width="350" height="350" patternUnits="userSpaceOnUse"><use xlink:href="#L1_27" x="-350" y="-350"/><use xlink:href="#L1_27" x="0" y="-350"/><use xlink:href="#L1_27" x="350" y="-350"/><use xlink:href="#L1_27" x="-350" y="0"/><use xlink:href="#L1_27" x="0" y="0"/><use xlink:href="#L1_27" x="350" y="0"/><use xlink:href="#L1_27" x="-350" y="350"/><use xlink:href="#L1_27" x="0" y="350"/><use xlink:href="#L1_27" x="350" y="350"/></pattern><rect x="0" y="0" width="100%" height="100%" fill="url(#pattern_L1_27)"/></g><g fi:class="KUsePattern"><pattern id="pattern_L1_28" width="350" height="350" patternUnits="userSpaceOnUse"><use xlink:href="#L1_28" x="-350" y="-350"/><use xlink:href="#L1_28" x="0" y="-350"/><use xlink:href="#L1_28" x="350" y="-350"/><use xlink:href="#L1_28" x="-350" y="0"/><use xlink:href="#L1_28" x="0" y="0"/><use xlink:href="#L1_28" x="350" y="0"/><use xlink:href="#L1_28" x="-350" y="350"/><use xlink:href="#L1_28" x="0" y="350"/><use xlink:href="#L1_28" x="350" y="350"/></pattern><rect x="0" y="0" width="100%" height="100%" fill="url(#pattern_L1_28)"/></g><g fi:class="KUsePattern"><pattern id="pattern_L1_29" width="350" height="350" patternUnits="userSpaceOnUse"><use xlink:href="#L1_29" x="-350" y="-350"/><use xlink:href="#L1_29" x="0" y="-350"/><use xlink:href="#L1_29" x="350" y="-350"/><use xlink:href="#L1_29" x="-350" y="0"/><use xlink:href="#L1_29" x="0" y="0"/><use xlink:href="#L1_29" x="350" y="0"/><use xlink:href="#L1_29" x="-350" y="350"/><use xlink:href="#L1_29" x="0" y="350"/><use xlink:href="#L1_29" x="350" y="350"/></pattern><rect x="0" y="0" width="100%" height="100%" fill="url(#pattern_L1_29)"/></g><g fi:class="KUsePattern"><pattern id="pattern_L1_30" width="350" height="350" patternUnits="userSpaceOnUse"><use xlink:href="#L1_30" x="-350" y="-350"/><use xlink:href="#L1_30" x="0" y="-350"/><use xlink:href="#L1_30" x="350" y="-350"/><use xlink:href="#L1_30" x="-350" y="0"/><use xlink:href="#L1_30" x="0" y="0"/><use xlink:href="#L1_30" x="350" y="0"/><use xlink:href="#L1_30" x="-350" y="350"/><use xlink:href="#L1_30" x="0" y="350"/><use xlink:href="#L1_30" x="350" y="350"/></pattern><rect x="0" y="0" width="100%" height="100%" fill="url(#pattern_L1_30)"/></g></svg>